<svg xmlns="http://www.w3.org/2000/svg" width="153" height="23" viewBox="0 0 153 23">
    <path fill="#FF3E80" fill-rule="evenodd" d="M7.94.3c7.107 0 11.252 4.547 11.252 10.837C19.192 17.492 15.104 22 7.939 22H.287V.3H7.94zM4.864 4.098v14.105h3.075c4.301 0 6.675-2.509 6.675-7.065 0-4.49-2.423-7.04-6.675-7.04H4.864zM30.251 6.13c5.572 0 8.694 3.546 8.694 8.119 0 4.505-2.977 8.117-8.694 8.117-5.669 0-8.695-3.692-8.695-8.117 0-4.425 3.026-8.119 8.695-8.119zm0 3.533c-2.565 0-4.25 1.695-4.25 4.586s1.685 4.586 4.25 4.586c2.62 0 4.25-1.632 4.25-4.586 0-2.982-1.69-4.586-4.25-4.586zm17.852-3.503c-3.626.015-7.088 1.536-7.088 4.79 0 3.498 2.566 4.017 6.47 4.665 1.434.261 2.71.382 2.71 1.679 0 1.195-1.183 1.649-2.806 1.64-2.25-.015-4.574-.899-5.592-1.69l-1.238 2.822c1.553 1.344 4.288 2.108 6.835 2.108 3.521.054 7.146-1.415 7.146-4.734 0-4.096-3.192-4.396-7.115-5.07-1.113-.202-2.026-.437-2.026-1.445 0-1.046 1.227-1.513 2.705-1.504 1.518.017 3.477.483 4.672 1.066l1.214-2.84c-1.574-.984-3.758-1.495-5.887-1.487zm14.369-3.764h-4.445V6.5h-2.402v3.309h2.402v5.837c0 2.5.902 4.19 2.396 5.227 1.458 1.029 3.484 1.408 5.79 1.336v-3.326c-1.159-.043-2.116-.285-2.772-.825-.62-.512-.97-1.29-.97-2.412V9.809h3.474V6.5h-3.473V2.397zm13.316 3.736c3.84-.001 7.359 1.829 7.359 5.956V22H79.23l-.19-1.913c-1.23 1.443-2.916 2.206-4.733 2.308-3.128.208-6.328-1.698-6.328-5.273 0-3.57 3.136-5.171 6.373-5.27 1.534-.04 3.104.264 4.35.849l-.002-.708c-.057-1.943-1.892-2.765-3.864-2.731-1.725.036-3.655.639-4.841 1.287l-1.043-2.662c1.994-1.084 4.487-1.753 6.836-1.754zm-.384 8.445c-1.736.007-3.276.686-3.276 2.275 0 1.568 1.576 2.337 3.284 2.247 1.226-.057 2.398-.48 3.301-1.536V15.41c-.875-.533-2.11-.836-3.309-.831zM101.312 6.5h-4.52l-4.015 10.904L88.763 6.5h-4.521L90.505 22h4.544l6.263-15.5zm4.41-6.37c-1.322 0-2.394.98-2.394 2.187 0 1.207 1.072 2.186 2.394 2.186s2.393-.98 2.393-2.186c0-1.208-1.071-2.187-2.393-2.187zm2.222 6.37H103.5V22h4.444V6.5zm9.863-.339c-3.626.015-7.089 1.536-7.089 4.79 0 3.498 2.566 4.017 6.47 4.665 1.434.261 2.71.382 2.71 1.679 0 1.195-1.183 1.649-2.805 1.64-2.251-.015-4.574-.899-5.592-1.69l-1.238 2.822c1.553 1.344 4.287 2.108 6.834 2.108 3.522.054 7.146-1.415 7.146-4.734 0-4.096-3.191-4.396-7.114-5.07-1.113-.202-2.026-.437-2.026-1.445 0-1.046 1.226-1.513 2.704-1.504 1.519.017 3.477.483 4.673 1.066l1.213-2.84c-1.573-.984-3.758-1.495-5.886-1.487zm14.368-3.764h-4.444V6.5h-2.403v3.309h2.403v5.837c0 2.5.902 4.19 2.395 5.227 1.459 1.029 3.484 1.408 5.791 1.336v-3.326c-1.16-.043-2.117-.285-2.773-.825-.619-.512-.969-1.29-.969-2.412V9.809h3.473V6.5h-3.473V2.397zm13.316 3.736c3.84-.001 7.36 1.829 7.36 5.956V22h-3.918l-.19-1.913c-1.23 1.443-2.915 2.206-4.733 2.308-3.127.208-6.328-1.698-6.328-5.273 0-3.57 3.137-5.171 6.373-5.27 1.534-.04 3.104.264 4.35.849l-.002-.708c-.057-1.943-1.891-2.765-3.864-2.731-1.724.036-3.654.639-4.84 1.287l-1.044-2.662c1.995-1.084 4.488-1.753 6.836-1.754zm-.383 8.445c-1.737.007-3.277.686-3.277 2.275 0 1.568 1.577 2.337 3.285 2.247 1.225-.057 2.398-.48 3.3-1.536V15.41c-.875-.533-2.11-.836-3.308-.831z"/>
</svg>
