<svg width="132" height="27" viewBox="0 0 132 27" fill="none" xmlns="http://www.w3.org/2000/svg">
<path d="M48.9385 8.25235C48.9385 6.44477 50.4038 4.97943 52.2114 4.97943C53.4812 4.97943 54.6081 5.79315 55.0075 6.99848L57.8157 15.4725L60.6808 6.9518C61.0771 5.7733 62.1816 4.97943 63.4249 4.97943C65.2015 4.97943 66.6417 6.41963 66.6417 8.19621V20.0236H63.8804L63.2165 10.5226L59.0634 20.0236H56.5373L52.425 10.5226L51.7305 20.0236H48.9385V8.25235Z" fill="#4432B5"/>
<path d="M77.8107 10.1237C77.8107 9.4459 78.3602 8.89644 79.038 8.89644H79.2016C79.9698 8.89644 80.5925 9.51917 80.5925 10.2873V20.0236H77.8107V18.8475C77.2653 19.3657 76.7164 19.7407 76.1642 19.9725C75.6187 20.1975 75.0255 20.31 74.3846 20.31C72.946 20.31 71.7017 19.7543 70.6517 18.6429C69.6017 17.5248 69.0767 16.1373 69.0767 14.4805C69.0767 12.7623 69.5847 11.3544 70.6006 10.2567C71.6165 9.15894 72.8505 8.61008 74.3028 8.61008C74.971 8.61008 75.5983 8.73621 76.1846 8.98848C76.771 9.24076 77.313 9.61916 77.8107 10.1237ZM74.8755 11.1873C74.0096 11.1873 73.2903 11.4941 72.7176 12.1078C72.1449 12.7146 71.8585 13.4953 71.8585 14.4498C71.8585 15.4112 72.1483 16.2021 72.7278 16.8225C73.3142 17.443 74.0335 17.7532 74.8858 17.7532C75.7653 17.7532 76.4948 17.4498 77.0744 16.843C77.6539 16.2293 77.9437 15.4282 77.9437 14.4396C77.9437 13.4714 77.6539 12.6873 77.0744 12.0873C76.4948 11.4873 75.7619 11.1873 74.8755 11.1873Z" fill="#4432B5"/>
<path d="M91.6379 10.1237C91.6379 9.4459 92.1873 8.89644 92.8651 8.89644H93.0288C93.7969 8.89644 94.4197 9.51917 94.4197 10.2873V20.0236H91.6379V18.8475C91.0924 19.3657 90.5436 19.7407 89.9913 19.9725C89.4459 20.1975 88.8527 20.31 88.2118 20.31C86.7731 20.31 85.5288 19.7543 84.4789 18.6429C83.4289 17.5248 82.9039 16.1373 82.9039 14.4805C82.9039 12.7623 83.4118 11.3544 84.4277 10.2567C85.4436 9.15894 86.6777 8.61008 88.13 8.61008C88.7981 8.61008 89.4254 8.73621 90.0118 8.98848C90.5981 9.24076 91.1402 9.61916 91.6379 10.1237ZM88.7027 11.1873C87.8368 11.1873 87.1175 11.4941 86.5447 12.1078C85.972 12.7146 85.6857 13.4953 85.6857 14.4498C85.6857 15.4112 85.9754 16.2021 86.555 16.8225C87.1413 17.443 87.8606 17.7532 88.7129 17.7532C89.5924 17.7532 90.322 17.4498 90.9015 16.843C91.4811 16.2293 91.7708 15.4282 91.7708 14.4396C91.7708 13.4714 91.4811 12.6873 90.9015 12.0873C90.322 11.4873 89.589 11.1873 88.7027 11.1873Z" fill="#4432B5"/>
<path d="M105.465 10.1237C105.465 9.4459 106.014 8.89644 106.692 8.89644H106.856C107.624 8.89644 108.247 9.51917 108.247 10.2873V20.0236H105.465V18.8475C104.92 19.3657 104.371 19.7407 103.818 19.9725C103.273 20.1975 102.68 20.31 102.039 20.31C100.6 20.31 99.356 19.7543 98.306 18.6429C97.256 17.5248 96.731 16.1373 96.731 14.4805C96.731 12.7623 97.239 11.3544 98.2549 10.2567C99.2708 9.15894 100.505 8.61008 101.957 8.61008C102.625 8.61008 103.253 8.73621 103.839 8.98848C104.425 9.24076 104.967 9.61916 105.465 10.1237ZM102.53 11.1873C101.664 11.1873 100.945 11.4941 100.372 12.1078C99.7992 12.7146 99.5128 13.4953 99.5128 14.4498C99.5128 15.4112 99.8026 16.2021 100.382 16.8225C100.968 17.443 101.688 17.7532 102.54 17.7532C103.42 17.7532 104.149 17.4498 104.729 16.843C105.308 16.2293 105.598 15.4282 105.598 14.4396C105.598 13.4714 105.308 12.6873 104.729 12.0873C104.149 11.4873 103.416 11.1873 102.53 11.1873Z" fill="#4432B5"/>
<path d="M112.614 8.89644C113.292 8.89644 113.841 9.4459 113.841 10.1237C114.346 9.61916 114.891 9.24076 115.477 8.98848C116.064 8.73621 116.691 8.61008 117.359 8.61008C118.811 8.61008 120.046 9.15894 121.061 10.2567C122.077 11.3544 122.585 12.7623 122.585 14.4805C122.585 16.1373 122.06 17.5248 121.01 18.6429C119.96 19.7543 118.716 20.31 117.277 20.31C116.637 20.31 116.04 20.1975 115.488 19.9725C114.935 19.7407 114.387 19.3657 113.841 18.8475V24.094H111.07V10.2822C111.07 9.51688 111.69 8.89644 112.455 8.89644H112.614ZM116.776 11.1873C115.897 11.1873 115.167 11.4873 114.588 12.0873C114.008 12.6873 113.718 13.4714 113.718 14.4396C113.718 15.4282 114.008 16.2293 114.588 16.843C115.167 17.4498 115.897 17.7532 116.776 17.7532C117.629 17.7532 118.344 17.443 118.924 16.8225C119.51 16.2021 119.804 15.4112 119.804 14.4498C119.804 13.4953 119.517 12.7146 118.944 12.1078C118.372 11.4941 117.649 11.1873 116.776 11.1873Z" fill="#4432B5"/>
<path d="M131.708 10.451L129.98 12.1794C129.277 11.4839 128.64 11.1362 128.067 11.1362C127.753 11.1362 127.508 11.2044 127.331 11.3407C127.153 11.4703 127.065 11.6339 127.065 11.8316C127.065 11.9816 127.119 12.1214 127.228 12.251C127.344 12.3737 127.624 12.5441 128.067 12.7623L129.09 13.2737C130.167 13.8055 130.907 14.3475 131.309 14.8998C131.711 15.4521 131.913 16.0998 131.913 16.843C131.913 17.8316 131.548 18.6566 130.818 19.3179C130.095 19.9793 129.124 20.31 127.903 20.31C126.281 20.31 124.985 19.6759 124.017 18.4077L125.735 16.5361C126.063 16.918 126.444 17.2282 126.881 17.4668C127.324 17.6986 127.716 17.8145 128.057 17.8145C128.425 17.8145 128.722 17.7259 128.947 17.5486C129.172 17.3714 129.284 17.1668 129.284 16.935C129.284 16.5055 128.878 16.0861 128.067 15.6771L127.126 15.2066C125.326 14.2998 124.426 13.1646 124.426 11.801C124.426 10.9214 124.764 10.1714 125.439 9.55098C126.121 8.92371 126.99 8.61008 128.047 8.61008C128.769 8.61008 129.448 8.77031 130.082 9.09076C130.723 9.40439 131.265 9.8578 131.708 10.451Z" fill="#4432B5"/>
<path fill-rule="evenodd" clip-rule="evenodd" d="M21.6346 26.7497L15.7355 20.9413L9.848 26.8288H20.6577C20.9904 26.8288 21.3167 26.8017 21.6346 26.7497ZM26.1926 23.1491L11.222 8.40884L19.4446 0.171204H20.6577C23.9714 0.171204 26.6577 2.8575 26.6577 6.17121V20.8288C26.6577 21.6514 26.4922 22.4353 26.1926 23.1491ZM6.08499 26.8288H6.00011C2.6864 26.8288 0.000110626 24.1425 0.000110626 20.8288V6.1712C0.000110626 5.93963 0.0132294 5.71112 0.038765 5.48638L13.8369 19.0769L6.08499 26.8288ZM3.43699 0.744665C4.21424 0.376899 5.08315 0.171204 6.00011 0.171204H15.5501L9.24701 6.47429L3.43699 0.744665Z" fill="#4432B5"/>
</svg>
